<svg width="360" height="800" viewBox="0 0 360 800" fill="none" xmlns="http://www.w3.org/2000/svg">
<path d="M180.5 420.5C1.87396 583.248 -174.106 745.997 -187.338 1049H-295.837C-250.849 703.656 -36.4976 562.078 180.5 420.5Z" fill="white"/>
<path d="M180.5 420.5C-77.5158 528.999 -323.623 657.345 -406.982 1049H-448V826.709C-293.191 559.432 -64.2842 469.457 180.5 420.5Z" fill="white"/>
<path d="M180.5 420.502C-41.7905 446.965 -264.081 473.428 -448 658.67V531.647C-245.557 401.977 -32.5284 411.24 180.5 420.502Z" fill="white"/>
<path d="M180.5 420.498C-25.9126 379.48 -232.325 338.462 -448 431.083V331.846C-216.447 272.304 -17.9737 346.401 180.5 420.498Z" fill="white"/>
<path d="M180.5 420.501C-3.41895 300.094 -199.246 210.119 -448 245.844V147.93C-175.429 137.345 5.84317 272.307 180.5 420.501Z" fill="white"/>
<path d="M180.5 420.5C17.7516 241.874 -144.997 65.894 -448 52.6624V-55.8366C-103.979 -10.8492 40.2452 203.502 180.5 420.5Z" fill="white"/>
<path d="M180.5 420.5C70.6779 162.484 -56.3453 -83.6232 -448 -166.982V-208H-225.709C41.5684 -53.1905 131.543 175.716 180.5 420.5Z" fill="white"/>
<path d="M180.5 420.5C154.037 198.209 127.573 -24.0811 -57.6687 -208H69.3545C199.024 -5.55684 189.762 207.472 180.5 420.5Z" fill="white"/>
<path d="M180.502 420.5C221.52 214.087 262.538 7.67473 169.917 -208H269.154C328.696 23.5526 254.599 222.026 180.502 420.5Z" fill="white"/>
<path d="M180.5 420.5C300.907 236.581 390.882 40.7537 355.157 -208H453.07C463.656 64.5705 328.694 245.843 180.5 420.5Z" fill="white"/>
<path d="M655.514 -208C611.849 137.344 397.498 278.922 180.5 420.5C359.126 257.752 535.106 95.0031 548.338 -208H655.514Z" fill="white"/>
<path d="M809 -208V14.2905C654.191 281.568 425.284 371.543 180.5 420.5C438.516 310.678 684.623 183.655 767.982 -208H809Z" fill="white"/>
<path d="M809 182.331V309.354C606.557 439.024 393.528 429.762 180.5 420.5C402.791 394.037 625.081 367.573 809 182.331Z" fill="white"/>
<path d="M809 409.917V509.154C577.447 568.696 378.974 494.599 180.5 420.502C386.913 461.52 593.325 502.538 809 409.917Z" fill="white"/>
<path d="M809 595.157V693.07C536.429 703.656 355.157 568.694 180.5 420.5C364.419 540.907 560.246 630.882 809 595.157Z" fill="white"/>
<path d="M809 788.338V896.837C463.656 853.173 320.755 637.498 180.5 420.5C343.248 599.126 505.997 775.106 809 788.338Z" fill="white"/>
<path d="M809 1007.98V1049H586.709C319.432 894.191 229.457 665.284 180.5 420.5C290.322 678.516 417.345 924.623 809 1007.98Z" fill="white"/>
<path d="M418.67 1049H291.647C161.977 846.557 171.24 633.528 180.502 420.5C206.965 642.791 233.428 865.081 418.67 1049Z" fill="white"/>
<path d="M191.084 1049H91.8473C30.9821 817.447 106.402 618.974 180.499 420.5C139.481 626.913 98.4631 833.325 191.084 1049Z" fill="white"/>
<path d="M5.84405 1049H-92.0696C-102.655 776.429 32.3072 595.157 180.501 420.5C60.0935 604.419 -29.8812 800.246 5.84405 1049Z" fill="white"/>
</svg>
